# xmcd
#
# Track frame offsets: 
#        150
#        14357
#        25127
#        36097
#        49454
#        61921
#        76219
#        87386
#        100128
#        112892
#        124349
#        134921
#        149463
#        159998
#        171615
#        185333
#        196933
#        205976
#        217636
#        229568
#        243469
#        254954
#        272364
#        285211
#        292902
#
# Disc length: 4028 seconds
#
# Revision: 0
# Processed by: cddbd v1.5.2PL0 Copyright (c) Steve Scherf et al.
# Submitted via: ExactAudioCopyFreeDBPlugin 1.0
#
DISCID=6a0fba19
DTITLE=Patti Page - The Definitive Collection CD 2
DYEAR=2015
DGENRE=Country
TTITLE0=South of the border
TTITLE1=You don't know me
TTITLE2=Just because
TTITLE3=Mockin' Bird Hill
TTITLE4=Am I that easy to forget?
TTITLE5=With My Eyes Wide Open I'm Dreaming
TTITLE6=Please help me I'm falling
TTITLE7=I fall to pieces
TTITLE8=Detour
TTITLE9=Have I told you lately that I love you?
TTITLE10=Jealous heart
TTITLE11=Words
TTITLE12=Walk on by
TTITLE13=That's what it's like to be lonesome
TTITLE14=Tennessee Waltz
TTITLE15=Mom and Dad's waltz
TTITLE16=Let me call you sweetheart
TTITLE17=Go on home
TTITLE18=Old Cape Cod
TTITLE19=Big bad John
TTITLE20=I'd rather be sorry
TTITLE21=Jody and the kid
TTITLE22=Make me your kind of woman
TTITLE23=Mississippi mud
TTITLE24=No One To Cry To
EXTD=
EXTT0=
EXTT1=
EXTT2=
EXTT3=
EXTT4=
EXTT5=
EXTT6=
EXTT7=
EXTT8=
EXTT9=
EXTT10=
EXTT11=
EXTT12=
EXTT13=
EXTT14=
EXTT15=
EXTT16=
EXTT17=
EXTT18=
EXTT19=
EXTT20=
EXTT21=
EXTT22=
EXTT23=
EXTT24=
PLAYORDER=
